<svg width="20" height="22" viewBox="0 0 20 22" fill="none" xmlns="http://www.w3.org/2000/svg">
<path fill-rule="evenodd" clip-rule="evenodd" d="M6 0.5C6.27614 0.5 6.5 0.723858 6.5 1V2.5H13.5V1C13.5 0.723858 13.7239 0.5 14 0.5C14.2761 0.5 14.5 0.723858 14.5 1V2.5H17C18.3807 2.5 19.5 3.61929 19.5 5V19C19.5 20.3807 18.3807 21.5 17 21.5H3C1.61929 21.5 0.5 20.3807 0.5 19V5C0.5 3.61929 1.61929 2.5 3 2.5H5.5V1C5.5 0.723858 5.72386 0.5 6 0.5ZM5.5 3.5H3C2.17157 3.5 1.5 4.17157 1.5 5V8.5H18.5V5C18.5 4.17157 17.8284 3.5 17 3.5H14.5V5C14.5 5.27614 14.2761 5.5 14 5.5C13.7239 5.5 13.5 5.27614 13.5 5V3.5H6.5V5C6.5 5.27614 6.27614 5.5 6 5.5C5.72386 5.5 5.5 5.27614 5.5 5V3.5ZM18.5 9.5H1.5V19C1.5 19.8284 2.17157 20.5 3 20.5H17C17.8284 20.5 18.5 19.8284 18.5 19V9.5Z" fill="#1A1A1A"/>
</svg>
