<svg width="24" height="24" viewBox="0 0 24 24" fill="none" xmlns="http://www.w3.org/2000/svg">
<path fill-rule="evenodd" clip-rule="evenodd" d="M0.646447 0.646447C0.841709 0.451184 1.15829 0.451184 1.35355 0.646447L10.2316 9.52453C10.2317 9.52455 10.2316 9.52451 10.2316 9.52453C10.2327 9.52562 10.2339 9.52676 10.235 9.52786C10.235 9.52788 10.235 9.52784 10.235 9.52786L14.472 13.7649C14.472 13.7649 14.472 13.7649 14.472 13.7649C14.4732 13.7661 14.4744 13.7672 14.4755 13.7684C14.4755 13.7684 14.4755 13.7684 14.4755 13.7684L18.2936 17.5864C18.2936 17.5865 18.2935 17.5864 18.2936 17.5864L23.3536 22.6464C23.5488 22.8417 23.5488 23.1583 23.3536 23.3536C23.1583 23.5488 22.8417 23.5488 22.6464 23.3536L17.889 18.5961C16.165 19.8006 14.1176 20.4654 12.0082 20.4999L12 20.5001C8.30025 20.5001 5.42724 18.3868 3.51023 16.342C2.54717 15.3147 1.81041 14.2893 1.31436 13.5213C1.06602 13.1367 0.877193 12.8154 0.749759 12.5889C0.686023 12.4756 0.637588 12.3859 0.604692 12.3237C0.588242 12.2926 0.575673 12.2684 0.567013 12.2516L0.556958 12.2319L0.554135 12.2263L0.553277 12.2246C0.553169 12.2244 0.552786 12.2236 1 12L0.552786 12.2236C0.480131 12.0783 0.482605 11.9067 0.559422 11.7636C1.74705 9.55033 3.36189 7.59697 5.30847 6.01557L0.646447 1.35355C0.451184 1.15829 0.451184 0.841709 0.646447 0.646447ZM6.01956 6.72667C4.20876 8.1805 2.69679 9.97231 1.56807 12.003C1.58423 12.0323 1.60198 12.0642 1.62133 12.0986C1.73999 12.3096 1.91836 12.6133 2.15439 12.9787C2.62709 13.7107 3.32783 14.6853 4.23977 15.658C6.072 17.6124 8.69759 19.4984 11.9959 19.5C13.8449 19.469 15.6411 18.9031 17.1697 17.8768L14.1056 14.8127C13.8746 14.9967 13.6207 15.1511 13.3497 15.2718C12.9203 15.4631 12.4569 15.566 11.9869 15.5743C11.517 15.5826 11.0502 15.4961 10.6144 15.3201C10.1785 15.1441 9.78265 14.8821 9.45029 14.5497C9.11794 14.2174 8.85593 13.8215 8.6799 13.3856C8.50387 12.9498 8.41742 12.483 8.42571 12.0131C8.434 11.5431 8.53687 11.0797 8.72816 10.6503C8.84892 10.3793 9.00335 10.1254 9.18732 9.89443L6.01956 6.72667ZM9.90079 10.6079C9.79929 10.748 9.71235 10.8985 9.64159 11.0573C9.50495 11.364 9.43148 11.6951 9.42556 12.0307C9.41963 12.3664 9.48138 12.6998 9.60712 13.0111C9.73285 13.3224 9.92 13.6052 10.1574 13.8426C10.3948 14.08 10.6776 14.2671 10.9889 14.3929C11.3002 14.5186 11.6336 14.5804 11.9693 14.5744C12.3049 14.5685 12.636 14.495 12.9427 14.3584C13.1015 14.2877 13.252 14.2007 13.3921 14.0992L9.90079 10.6079ZM10.9304 4.56394L20.8025 14.4451C21.4115 13.6751 21.9566 12.8566 22.4322 11.9975C22.416 11.968 22.3981 11.936 22.3787 11.9014C22.26 11.6904 22.0816 11.3867 21.8456 11.0213C21.3729 10.2893 20.6722 9.3147 19.7602 8.34197C17.9272 6.38678 15.3002 4.5 12 4.5L11.9988 4.5C11.6414 4.49916 11.2846 4.52055 10.9304 4.56394ZM23 12L23.4472 11.7764C23.5197 11.9215 23.5174 12.0927 23.441 12.2357C22.8175 13.402 22.074 14.5 21.2226 15.5119C21.1324 15.6191 21.0013 15.6836 20.8614 15.6895C20.7214 15.6955 20.5853 15.6425 20.4863 15.5434L9.54628 4.59339C9.41805 4.46504 9.3694 4.27728 9.41919 4.1028C9.46898 3.92833 9.60938 3.79451 9.78604 3.75316C10.5119 3.58325 11.2551 3.4983 12.0006 3.5C15.7 3.50022 18.5729 5.61332 20.4898 7.65803C21.4528 8.6853 22.1896 9.71066 22.6856 10.4787C22.934 10.8633 23.1228 11.1846 23.2502 11.4111C23.314 11.5244 23.3624 11.6141 23.3953 11.6763C23.4118 11.7074 23.4243 11.7316 23.433 11.7484L23.443 11.7681L23.4459 11.7737L23.4467 11.7754L23.4472 11.7764C23.4473 11.7766 23.4472 11.7764 23 12Z" fill="#1A1A1A"/>
</svg>
