<svg width="18" height="20" viewBox="0 0 18 20" fill="none" xmlns="http://www.w3.org/2000/svg">
<path fill-rule="evenodd" clip-rule="evenodd" d="M9 1.5C7.067 1.5 5.5 3.067 5.5 5C5.5 6.933 7.067 8.5 9 8.5C10.933 8.5 12.5 6.933 12.5 5C12.5 3.067 10.933 1.5 9 1.5ZM4.5 5C4.5 2.51472 6.51472 0.5 9 0.5C11.4853 0.5 13.5 2.51472 13.5 5C13.5 7.48528 11.4853 9.5 9 9.5C6.51472 9.5 4.5 7.48528 4.5 5ZM1.81802 13.818C2.66193 12.9741 3.80653 12.5 5 12.5H13C14.1935 12.5 15.3381 12.9741 16.182 13.818C17.0259 14.6619 17.5 15.8065 17.5 17V19C17.5 19.2761 17.2761 19.5 17 19.5C16.7239 19.5 16.5 19.2761 16.5 19V17C16.5 16.0717 16.1313 15.1815 15.4749 14.5251C14.8185 13.8687 13.9283 13.5 13 13.5H5C4.07174 13.5 3.1815 13.8687 2.52513 14.5251C1.86875 15.1815 1.5 16.0717 1.5 17V19C1.5 19.2761 1.27614 19.5 1 19.5C0.723858 19.5 0.5 19.2761 0.5 19V17C0.5 15.8065 0.974106 14.6619 1.81802 13.818Z" fill="#1A1A1A"/>
</svg>
